<svg width="183" height="50" viewBox="0 0 183 50" fill="none" xmlns="http://www.w3.org/2000/svg">
<path d="M0 15.1097C0 14.7494 0.390529 14.5247 0.702046 14.7057L8.41212 19.1859C8.55606 19.2695 8.64463 19.4234 8.64463 19.5899V28.4381C8.64463 28.7986 8.25387 29.0233 7.94236 28.842L0.232282 24.356C0.0884717 24.2724 0 24.1185 0 23.9521V15.1097Z" fill="#A16BFF"/>
<path d="M0 15.1097C0 14.7494 0.390529 14.5247 0.702046 14.7057L8.41212 19.1859C8.55606 19.2695 8.64463 19.4234 8.64463 19.5899V28.4381C8.64463 28.7986 8.25387 29.0233 7.94236 28.842L0.232282 24.356C0.0884717 24.2724 0 24.1185 0 23.9521V15.1097Z" fill="#A16BFF"/>
<path d="M0 28.6608C0 28.3005 0.390529 28.0757 0.702046 28.2567L8.41212 32.7369C8.55606 32.8206 8.64463 32.9745 8.64463 33.1409V41.9892C8.64463 42.3496 8.25387 42.5743 7.94236 42.3931L0.232282 37.9071C0.0884717 37.8234 0 37.6696 0 37.5032V28.6608Z" fill="#A16BFF"/>
<path d="M0 28.6608C0 28.3005 0.390529 28.0757 0.702046 28.2567L8.41212 32.7369C8.55606 32.8206 8.64463 32.9745 8.64463 33.1409V41.9892C8.64463 42.3496 8.25387 42.5743 7.94236 42.3931L0.232282 37.9071C0.0884717 37.8234 0 37.6696 0 37.5032V28.6608Z" fill="#A16BFF"/>
<path d="M11.7988 22.0016C11.7988 21.6413 12.1894 21.4165 12.5009 21.5976L20.2109 26.0777C20.3549 26.1614 20.4435 26.3153 20.4435 26.4818V35.33C20.4435 35.6904 20.0527 35.9151 19.7412 35.7339L12.0311 31.2479C11.8873 31.1642 11.7988 31.0104 11.7988 30.844V22.0016Z" fill="#A16BFF"/>
<path d="M11.7988 22.0016C11.7988 21.6413 12.1894 21.4165 12.5009 21.5976L20.2109 26.0777C20.3549 26.1614 20.4435 26.3153 20.4435 26.4818V35.33C20.4435 35.6904 20.0527 35.9151 19.7412 35.7339L12.0311 31.2479C11.8873 31.1642 11.7988 31.0104 11.7988 30.844V22.0016Z" fill="#A16BFF"/>
<path d="M11.7988 35.5526C11.7988 35.1923 12.1894 34.9676 12.5009 35.1486L20.2109 39.6288C20.3549 39.7124 20.4435 39.8663 20.4435 40.0328V48.881C20.4435 49.2414 20.0527 49.4662 19.7412 49.2849L12.0311 44.7989C11.8873 44.7152 11.7988 44.5614 11.7988 44.395V35.5526Z" fill="#A16BFF"/>
<path d="M11.7988 35.5526C11.7988 35.1923 12.1894 34.9676 12.5009 35.1486L20.2109 39.6288C20.3549 39.7124 20.4435 39.8663 20.4435 40.0328V48.881C20.4435 49.2414 20.0527 49.4662 19.7412 49.2849L12.0311 44.7989C11.8873 44.7152 11.7988 44.5614 11.7988 44.395V35.5526Z" fill="#A16BFF"/>
<path d="M43.9239 15.1097C43.9239 14.7494 43.5334 14.5247 43.2219 14.7057L35.5118 19.1859C35.3679 19.2695 35.2793 19.4234 35.2793 19.5899V28.4381C35.2793 28.7986 35.6701 29.0233 35.9816 28.842L43.6916 24.356C43.8355 24.2724 43.9239 24.1185 43.9239 23.9521V15.1097Z" fill="#A16BFF"/>
<path d="M43.9239 15.1097C43.9239 14.7494 43.5334 14.5247 43.2219 14.7057L35.5118 19.1859C35.3679 19.2695 35.2793 19.4234 35.2793 19.5899V28.4381C35.2793 28.7986 35.6701 29.0233 35.9816 28.842L43.6916 24.356C43.8355 24.2724 43.9239 24.1185 43.9239 23.9521V15.1097Z" fill="#A16BFF"/>
<path d="M43.9239 28.6608C43.9239 28.3005 43.5334 28.0757 43.2219 28.2567L35.5118 32.7369C35.3679 32.8206 35.2793 32.9745 35.2793 33.1409V41.9892C35.2793 42.3496 35.6701 42.5743 35.9816 42.3931L43.6916 37.9071C43.8355 37.8234 43.9239 37.6696 43.9239 37.5032V28.6608Z" fill="#A16BFF"/>
<path d="M43.9239 28.6608C43.9239 28.3005 43.5334 28.0757 43.2219 28.2567L35.5118 32.7369C35.3679 32.8206 35.2793 32.9745 35.2793 33.1409V41.9892C35.2793 42.3496 35.6701 42.5743 35.9816 42.3931L43.6916 37.9071C43.8355 37.8234 43.9239 37.6696 43.9239 37.5032V28.6608Z" fill="#A16BFF"/>
<path d="M32.1251 22.0016C32.1251 21.6413 31.7346 21.4165 31.4231 21.5976L23.713 26.0777C23.569 26.1614 23.4805 26.3153 23.4805 26.4818V35.33C23.4805 35.6904 23.8712 35.9151 24.1827 35.7339L31.8928 31.2479C32.0366 31.1642 32.1251 31.0104 32.1251 30.844V22.0016Z" fill="#A16BFF"/>
<path d="M32.1251 22.0016C32.1251 21.6413 31.7346 21.4165 31.4231 21.5976L23.713 26.0777C23.569 26.1614 23.4805 26.3153 23.4805 26.4818V35.33C23.4805 35.6904 23.8712 35.9151 24.1827 35.7339L31.8928 31.2479C32.0366 31.1642 32.1251 31.0104 32.1251 30.844V22.0016Z" fill="#A16BFF"/>
<path d="M32.1251 35.5526C32.1251 35.1923 31.7346 34.9676 31.4231 35.1486L23.713 39.6288C23.569 39.7124 23.4805 39.8663 23.4805 40.0328V48.881C23.4805 49.2414 23.8712 49.4662 24.1827 49.2849L31.8928 44.7989C32.0366 44.7152 32.1251 44.5614 32.1251 44.395V35.5526Z" fill="#A16BFF"/>
<path d="M32.1251 35.5526C32.1251 35.1923 31.7346 34.9676 31.4231 35.1486L23.713 39.6288C23.569 39.7124 23.4805 39.8663 23.4805 40.0328V48.881C23.4805 49.2414 23.8712 49.4662 24.1827 49.2849L31.8928 44.7989C32.0366 44.7152 32.1251 44.5614 32.1251 44.395V35.5526Z" fill="#A16BFF"/>
<path d="M2.21844 11.4283C1.90799 11.6111 1.9125 12.0616 2.22655 12.2382L9.99945 16.6085C10.1446 16.6901 10.3221 16.6883 10.4656 16.6038L18.09 12.1139C18.4006 11.931 18.3959 11.4803 18.0817 11.3038L10.3037 6.9365C10.1587 6.85504 9.98122 6.85686 9.83785 6.94129L2.21844 11.4283Z" fill="#A16BFF"/>
<path d="M2.21844 11.4283C1.90799 11.6111 1.9125 12.0616 2.22655 12.2382L9.99945 16.6085C10.1446 16.6901 10.3221 16.6883 10.4656 16.6038L18.09 12.1139C18.4006 11.931 18.3959 11.4803 18.0817 11.3038L10.3037 6.9365C10.1587 6.85504 9.98122 6.85686 9.83785 6.94129L2.21844 11.4283Z" fill="#A16BFF"/>
<path d="M13.8942 4.55155C13.5838 4.73438 13.5883 5.18493 13.9023 5.36151L21.6752 9.73178C21.8203 9.81337 21.9979 9.81159 22.1414 9.72712L29.7658 5.23719C30.0763 5.05431 30.0717 4.60356 29.7574 4.4271L21.9795 0.0597878C21.8344 -0.0216722 21.657 -0.0198479 21.5136 0.0645809L13.8942 4.55155Z" fill="#A16BFF"/>
<path d="M13.8942 4.55155C13.5838 4.73438 13.5883 5.18493 13.9023 5.36151L21.6752 9.73178C21.8203 9.81337 21.9979 9.81159 22.1414 9.72712L29.7658 5.23719C30.0763 5.05431 30.0717 4.60356 29.7574 4.4271L21.9795 0.0597878C21.8344 -0.0216722 21.657 -0.0198479 21.5136 0.0645809L13.8942 4.55155Z" fill="#A16BFF"/>
<path d="M14.1442 18.0973C13.8338 18.2802 13.8383 18.7307 14.1523 18.9073L21.9252 23.2776C22.0703 23.3591 22.2479 23.3574 22.3914 23.2729L30.0158 18.783C30.3263 18.6001 30.3217 18.1493 30.0074 17.9729L22.2295 13.6056C22.0844 13.5241 21.907 13.5259 21.7636 13.6104L14.1442 18.0973Z" fill="#A16BFF"/>
<path d="M14.1442 18.0973C13.8338 18.2802 13.8383 18.7307 14.1523 18.9073L21.9252 23.2776C22.0703 23.3591 22.2479 23.3574 22.3914 23.2729L30.0158 18.783C30.3263 18.6001 30.3217 18.1493 30.0074 17.9729L22.2295 13.6056C22.0844 13.5241 21.907 13.5259 21.7636 13.6104L14.1442 18.0973Z" fill="#A16BFF"/>
<path d="M25.822 11.2211C25.5115 11.4039 25.516 11.8545 25.8301 12.0311L33.603 16.4013C33.7481 16.4829 33.9256 16.4811 34.0691 16.3967L41.6935 11.9067C42.0041 11.7239 41.9994 11.2731 41.6852 11.0967L33.9073 6.72934C33.7622 6.64788 33.5847 6.64971 33.4414 6.73414L25.822 11.2211Z" fill="#A16BFF"/>
<path d="M25.822 11.2211C25.5115 11.4039 25.516 11.8545 25.8301 12.0311L33.603 16.4013C33.7481 16.4829 33.9256 16.4811 34.0691 16.3967L41.6935 11.9067C42.0041 11.7239 41.9994 11.2731 41.6852 11.0967L33.9073 6.72934C33.7622 6.64788 33.5847 6.64971 33.4414 6.73414L25.822 11.2211Z" fill="#A16BFF"/>
<path d="M68.6541 24.9777H65.7383L72.29 6.77148H75.4637L82.0154 24.9777H79.0996L73.9524 10.0785H73.8102L68.6541 24.9777ZM69.1431 17.8481H78.6017V20.1594H69.1431V17.8481Z" fill="#A16BFF"/>
<path d="M87.0892 6.77148V24.9777H84.4312V6.77148H87.0892Z" fill="#A16BFF"/>
<path d="M96.5501 25.2533C95.2048 25.2533 94.0462 24.9658 93.0742 24.391C92.1082 23.8102 91.3615 22.9953 90.834 21.9463C90.3125 20.8914 90.0517 19.6557 90.0517 18.2393C90.0517 16.8406 90.3125 15.6079 90.834 14.5411C91.3615 13.4743 92.0964 12.6417 93.0387 12.0431C93.9869 11.4445 95.0952 11.1452 96.3634 11.1452C97.1339 11.1452 97.8806 11.2727 98.6037 11.5275C99.3267 11.7823 99.9756 12.1824 100.551 12.7276C101.125 13.2728 101.579 13.9811 101.911 14.8523C102.243 15.7175 102.408 16.7695 102.408 18.0081V18.9504H91.5541V16.9591H99.8038C99.8038 16.2598 99.6615 15.6405 99.3771 15.1012C99.0926 14.5559 98.6926 14.1263 98.1769 13.8122C97.6673 13.4981 97.0687 13.341 96.3812 13.341C95.6345 13.341 94.9826 13.5247 94.4255 13.8922C93.8743 14.2537 93.4476 14.7278 93.1454 15.3145C92.849 15.8953 92.7009 16.5265 92.7009 17.208V18.7637C92.7009 19.6764 92.8609 20.4528 93.1809 21.0929C93.5069 21.7329 93.9602 22.2219 94.541 22.5597C95.1218 22.8916 95.8004 23.0575 96.5768 23.0575C97.0805 23.0575 97.5399 22.9864 97.9547 22.8441C98.3696 22.696 98.7281 22.4767 99.0304 22.1863C99.3326 21.8959 99.5637 21.5373 99.7238 21.1106L102.24 21.564C102.038 22.3048 101.677 22.9538 101.155 23.5109C100.639 24.062 99.9905 24.4917 99.2082 24.7999C98.4318 25.1021 97.5458 25.2533 96.5501 25.2533Z" fill="#A16BFF"/>
<path d="M105.358 24.9777V11.323H107.927V13.4921H108.069C108.318 12.7572 108.756 12.1794 109.385 11.7586C110.019 11.3319 110.736 11.1186 111.536 11.1186C111.702 11.1186 111.898 11.1245 112.123 11.1363C112.354 11.1482 112.535 11.163 112.665 11.1808V13.7233C112.558 13.6936 112.369 13.661 112.096 13.6255C111.823 13.584 111.551 13.5632 111.278 13.5632C110.65 13.5632 110.09 13.6966 109.598 13.9633C109.112 14.2241 108.727 14.5885 108.442 15.0567C108.158 15.519 108.016 16.0464 108.016 16.6391V24.9777H105.358Z" fill="#A16BFF"/>
<path d="M122.146 11.323V13.4566H114.687V11.323H122.146ZM116.688 8.05161H119.346V20.9684C119.346 21.484 119.423 21.8722 119.577 22.133C119.731 22.3878 119.929 22.5626 120.172 22.6575C120.421 22.7464 120.691 22.7908 120.981 22.7908C121.195 22.7908 121.381 22.776 121.541 22.7463C121.701 22.7167 121.826 22.693 121.915 22.6752L122.395 24.871C122.241 24.9303 122.021 24.9895 121.737 25.0488C121.453 25.114 121.097 25.1495 120.67 25.1555C119.971 25.1673 119.319 25.0429 118.714 24.7821C118.11 24.5213 117.621 24.1183 117.248 23.5731C116.874 23.0279 116.688 22.3433 116.688 21.5196V8.05161Z" fill="#A16BFF"/>
<path d="M135.098 14.6567L132.689 15.0834C132.588 14.7752 132.428 14.4819 132.209 14.2033C131.996 13.9248 131.705 13.6966 131.338 13.5188C130.97 13.341 130.511 13.2521 129.96 13.2521C129.207 13.2521 128.579 13.421 128.075 13.7588C127.572 14.0907 127.32 14.5204 127.32 15.0478C127.32 15.5042 127.489 15.8716 127.826 16.1502C128.164 16.4287 128.71 16.6569 129.462 16.8347L131.631 17.3325C132.888 17.6229 133.824 18.0703 134.44 18.6748C135.057 19.2794 135.365 20.0646 135.365 21.0306C135.365 21.8485 135.128 22.5774 134.654 23.2175C134.186 23.8516 133.531 24.3495 132.689 24.711C131.854 25.0725 130.885 25.2533 129.782 25.2533C128.253 25.2533 127.006 24.9273 126.04 24.2754C125.074 23.6175 124.481 22.6841 124.262 21.4751L126.831 21.084C126.991 21.7537 127.32 22.2604 127.818 22.6041C128.315 22.9419 128.964 23.1108 129.764 23.1108C130.636 23.1108 131.332 22.9301 131.854 22.5686C132.375 22.2011 132.636 21.7537 132.636 21.2262C132.636 20.7995 132.476 20.4409 132.156 20.1505C131.842 19.8601 131.359 19.6409 130.707 19.4927L128.395 18.986C127.121 18.6956 126.179 18.2333 125.568 17.5992C124.964 16.9651 124.662 16.162 124.662 15.1901C124.662 14.3841 124.887 13.6788 125.337 13.0743C125.788 12.4698 126.41 11.9987 127.204 11.6608C127.998 11.3171 128.908 11.1452 129.933 11.1452C131.409 11.1452 132.571 11.4653 133.418 12.1053C134.266 12.7395 134.826 13.5899 135.098 14.6567Z" fill="#A16BFF"/>
<path d="M145.126 24.9777V6.77148H151.793C153.085 6.77148 154.155 6.98484 155.002 7.41155C155.85 7.83233 156.484 8.40423 156.905 9.12727C157.326 9.84437 157.536 10.6533 157.536 11.5542C157.536 12.3128 157.397 12.9528 157.118 13.4743C156.84 13.99 156.466 14.4048 155.998 14.7189C155.536 15.0271 155.026 15.2523 154.469 15.3945V15.5723C155.074 15.602 155.663 15.7975 156.238 16.1591C156.819 16.5146 157.299 17.0214 157.678 17.6792C158.058 18.337 158.247 19.1371 158.247 20.0794C158.247 21.0099 158.028 21.8455 157.589 22.5863C157.157 23.3212 156.487 23.905 155.58 24.3376C154.673 24.7643 153.515 24.9777 152.104 24.9777H145.126ZM147.873 22.6219H151.838C153.153 22.6219 154.096 22.3671 154.665 21.8574C155.234 21.3477 155.518 20.7106 155.518 19.9461C155.518 19.3712 155.373 18.8438 155.082 18.3637C154.792 17.8837 154.377 17.5014 153.838 17.2169C153.304 16.9325 152.67 16.7902 151.935 16.7902H147.873V22.6219ZM147.873 14.6478H151.553C152.17 14.6478 152.724 14.5293 153.216 14.2922C153.713 14.0551 154.107 13.7233 154.398 13.2966C154.694 12.8639 154.842 12.3542 154.842 11.7675C154.842 11.0149 154.579 10.3837 154.051 9.874C153.524 9.36433 152.715 9.10949 151.624 9.10949H147.873V14.6478Z" fill="#A16BFF"/>
<path d="M165.266 25.2799C164.4 25.2799 163.618 25.1199 162.919 24.7999C162.219 24.4739 161.665 24.0028 161.256 23.3864C160.853 22.7701 160.652 22.0144 160.652 21.1195C160.652 20.3491 160.8 19.7149 161.096 19.2171C161.393 18.7193 161.793 18.3252 162.296 18.0348C162.8 17.7444 163.363 17.5251 163.985 17.3769C164.608 17.2288 165.242 17.1162 165.888 17.0391C166.706 16.9443 167.37 16.8673 167.879 16.808C168.389 16.7428 168.759 16.6391 168.99 16.4969C169.222 16.3546 169.337 16.1235 169.337 15.8035V15.7412C169.337 14.9649 169.118 14.3633 168.679 13.9366C168.247 13.5099 167.601 13.2966 166.741 13.2966C165.846 13.2966 165.141 13.4951 164.626 13.8922C164.116 14.2833 163.763 14.7189 163.568 15.199L161.07 14.63C161.366 13.8003 161.799 13.1306 162.368 12.6209C162.942 12.1053 163.603 11.732 164.35 11.5008C165.097 11.2638 165.882 11.1452 166.706 11.1452C167.251 11.1452 167.829 11.2104 168.439 11.3408C169.056 11.4653 169.63 11.6964 170.164 12.0342C170.703 12.372 171.145 12.855 171.488 13.4832C171.832 14.1055 172.004 14.9145 172.004 15.9101V24.9777H169.408V23.1108H169.302C169.13 23.4546 168.872 23.7924 168.528 24.1243C168.184 24.4561 167.743 24.7317 167.204 24.951C166.664 25.1703 166.018 25.2799 165.266 25.2799ZM165.843 23.1464C166.578 23.1464 167.207 23.0012 167.728 22.7108C168.256 22.4204 168.656 22.0411 168.928 21.5729C169.207 21.0988 169.346 20.5921 169.346 20.0528V18.2926C169.251 18.3874 169.067 18.4763 168.795 18.5593C168.528 18.6363 168.223 18.7045 167.879 18.7637C167.535 18.8171 167.201 18.8675 166.875 18.9149C166.549 18.9564 166.276 18.9919 166.057 19.0215C165.541 19.0867 165.07 19.1964 164.643 19.3505C164.223 19.5046 163.885 19.7268 163.63 20.0172C163.381 20.3017 163.257 20.681 163.257 21.1551C163.257 21.8129 163.5 22.3108 163.985 22.6486C164.471 22.9804 165.091 23.1464 165.843 23.1464Z" fill="#A16BFF"/>
<path d="M175.544 24.9777V11.323H178.113V13.4921H178.256C178.505 12.7572 178.943 12.1794 179.571 11.7586C180.206 11.3319 180.923 11.1186 181.723 11.1186C181.889 11.1186 182.084 11.1245 182.309 11.1363C182.541 11.1482 182.721 11.163 182.852 11.1808V13.7233C182.745 13.6936 182.555 13.661 182.283 13.6255C182.01 13.584 181.738 13.5632 181.465 13.5632C180.837 13.5632 180.277 13.6966 179.785 13.9633C179.299 14.2241 178.914 14.5885 178.629 15.0567C178.345 15.519 178.202 16.0464 178.202 16.6391V24.9777H175.544Z" fill="#A16BFF"/>
<path d="M70.5964 35.1231C70.5538 34.7632 70.381 34.4839 70.0779 34.285C69.7749 34.0861 69.4032 33.9867 68.9629 33.9867C68.6409 33.9867 68.3592 34.0388 68.1177 34.1429C67.8786 34.2471 67.6916 34.3903 67.5566 34.5726C67.4241 34.7549 67.3578 34.9621 67.3578 35.1941C67.3578 35.3882 67.4039 35.5551 67.4963 35.6948C67.591 35.8321 67.7117 35.9469 67.8585 36.0393C68.0053 36.1292 68.1592 36.2038 68.3201 36.263C68.4811 36.3198 68.6291 36.366 68.764 36.4015L69.5027 36.6003C69.6921 36.65 69.9028 36.7187 70.1348 36.8063C70.3691 36.8939 70.5929 37.0134 70.8059 37.165C71.0214 37.3141 71.1989 37.5059 71.3386 37.7402C71.4783 37.9746 71.5481 38.2623 71.5481 38.6032C71.5481 38.9962 71.4451 39.3513 71.2392 39.6685C71.0356 39.9857 70.7373 40.2379 70.3443 40.4249C69.9537 40.6119 69.479 40.7054 68.9203 40.7054C68.3994 40.7054 67.9484 40.6214 67.5673 40.4533C67.1885 40.2852 66.8902 40.0509 66.6724 39.7502C66.457 39.4495 66.335 39.1003 66.3066 38.7026H67.2157C67.2394 38.9772 67.3317 39.2045 67.4927 39.3844C67.6561 39.562 67.862 39.6946 68.1106 39.7821C68.3616 39.8674 68.6315 39.91 68.9203 39.91C69.2565 39.91 69.5583 39.8555 69.8258 39.7466C70.0933 39.6354 70.3052 39.4815 70.4615 39.285C70.6177 39.0861 70.6958 38.8541 70.6958 38.589C70.6958 38.3475 70.6284 38.151 70.4934 37.9995C70.3585 37.848 70.1809 37.7249 69.9608 37.6302C69.7406 37.5355 69.5027 37.4526 69.247 37.3816L68.3521 37.1259C67.7839 36.9625 67.3341 36.7294 67.0027 36.4263C66.6712 36.1233 66.5055 35.7268 66.5055 35.2367C66.5055 34.8295 66.6156 34.4744 66.8358 34.1714C67.0583 33.866 67.3566 33.6292 67.7306 33.4611C68.1071 33.2907 68.5273 33.2054 68.9913 33.2054C69.46 33.2054 69.8767 33.2895 70.2413 33.4576C70.6059 33.6233 70.8947 33.8506 71.1078 34.1394C71.3232 34.4282 71.4368 34.7561 71.4487 35.1231H70.5964Z" fill="#A16BFF"/>
<path d="M80.5984 34.0861V33.3049H86.0529V34.0861H83.766V40.5776H82.8853V34.0861H80.5984Z" fill="#A16BFF"/>
<path d="M94.8608 40.5776H93.9375L96.608 33.3049H97.517L100.188 40.5776H99.2642L97.0909 34.4554H97.0341L94.8608 40.5776ZM95.2017 37.7367H98.9233V38.5179H95.2017V37.7367Z" fill="#A16BFF"/>
<path d="M107.953 33.3049H108.962L110.979 36.6998H111.064L113.081 33.3049H114.089L111.462 37.5804V40.5776H110.581V37.5804L107.953 33.3049Z" fill="#A16BFF"/>
<path d="M138.018 35.1231C137.976 34.7632 137.803 34.4839 137.5 34.285C137.197 34.0861 136.825 33.9867 136.385 33.9867C136.063 33.9867 135.781 34.0388 135.54 34.1429C135.3 34.2471 135.113 34.3903 134.979 34.5726C134.846 34.7549 134.78 34.9621 134.78 35.1941C134.78 35.3882 134.826 35.5551 134.918 35.6948C135.013 35.8321 135.134 35.9469 135.28 36.0393C135.427 36.1292 135.581 36.2038 135.742 36.263C135.903 36.3198 136.051 36.366 136.186 36.4015L136.925 36.6003C137.114 36.65 137.325 36.7187 137.557 36.8063C137.791 36.8939 138.015 37.0134 138.228 37.165C138.443 37.3141 138.621 37.5059 138.76 37.7402C138.9 37.9746 138.97 38.2623 138.97 38.6032C138.97 38.9962 138.867 39.3513 138.661 39.6685C138.457 39.9857 138.159 40.2379 137.766 40.4249C137.376 40.6119 136.901 40.7054 136.342 40.7054C135.821 40.7054 135.37 40.6214 134.989 40.4533C134.61 40.2852 134.312 40.0509 134.094 39.7502C133.879 39.4495 133.757 39.1003 133.729 38.7026H134.638C134.661 38.9772 134.754 39.2045 134.915 39.3844C135.078 39.562 135.284 39.6946 135.532 39.7821C135.783 39.8674 136.053 39.91 136.342 39.91C136.678 39.91 136.98 39.8555 137.248 39.7466C137.515 39.6354 137.727 39.4815 137.883 39.285C138.04 39.0861 138.118 38.8541 138.118 38.589C138.118 38.3475 138.05 38.151 137.915 37.9995C137.78 37.848 137.603 37.7249 137.383 37.6302C137.162 37.5355 136.925 37.4526 136.669 37.3816L135.774 37.1259C135.206 36.9625 134.756 36.7294 134.425 36.4263C134.093 36.1233 133.927 35.7268 133.927 35.2367C133.927 34.8295 134.037 34.4744 134.258 34.1714C134.48 33.866 134.778 33.6292 135.153 33.4611C135.529 33.2907 135.949 33.2054 136.413 33.2054C136.882 33.2054 137.299 33.2895 137.663 33.4576C138.028 33.6233 138.317 33.8506 138.53 34.1394C138.745 34.4282 138.859 34.7561 138.871 35.1231H138.018Z" fill="#A16BFF"/>
<path d="M148.716 40.5776H147.793L150.463 33.3049H151.373L154.043 40.5776H153.12L150.946 34.4554H150.89L148.716 40.5776ZM149.057 37.7367H152.779V38.5179H149.057V37.7367Z" fill="#A16BFF"/>
<path d="M163.176 40.5776V33.3049H167.537V34.0861H164.056V36.5435H167.21V37.3248H164.056V40.5776H163.176Z" fill="#A16BFF"/>
<path d="M177.045 40.5776V33.3049H181.434V34.0861H177.926V36.5435H181.207V37.3248H177.926V39.7964H181.491V40.5776H177.045Z" fill="#A16BFF"/>
</svg>
