<?xml version="1.0" encoding="UTF-8"?><svg id="Layer_2" xmlns="http://www.w3.org/2000/svg" viewBox="0 0 366.731 77.269"><defs><style>.cls-1{fill:#0054a4;}.cls-2{fill:#00964c;}</style></defs><g id="Layer_1-2"><path class="cls-1" d="M181.255,57.762l-2.883,2.916c-1.961-2.188-4.164-3.283-6.614-3.283-2.069,0-3.812.748-5.227,2.24-1.416,1.496-2.125,3.336-2.125,5.525,0,1.525.314,2.881.941,4.062.627,1.182,1.515,2.111,2.661,2.785,1.147.674,2.421,1.012,3.822,1.012,1.194,0,2.287-.236,3.279-.709.988-.471,2.076-1.33,3.262-2.574l2.795,3.107c-1.6,1.664-3.109,2.816-4.533,3.461-1.422.642-3.043.965-4.868.965-3.363,0-6.118-1.131-8.261-3.396-2.143-2.264-3.214-5.166-3.214-8.705,0-2.291.488-4.324,1.463-6.105.978-1.779,2.373-3.211,4.193-4.295,1.819-1.082,3.778-1.623,5.877-1.623,1.786,0,3.505.4,5.157,1.201,1.652.801,3.078,1.939,4.273,3.416Z"/><path class="cls-1" d="M184.397,53.707h4.355c2.389,0,4.084.227,5.098.682,1.014.453,1.826,1.207,2.441,2.262.615,1.055.924,2.303.924,3.744,0,1.514-.34,2.779-1.023,3.797-.684,1.017-1.713,1.789-3.09,2.31l5.129,10.205h-4.465l-4.887-9.719h-.394v9.719h-4.088v-23ZM188.485,62.707h1.289c1.309,0,2.211-.182,2.703-.549.496-.365.742-.973.742-1.818,0-.502-.121-.937-.369-1.309-.242-.371-.57-.639-.98-.799-.412-.164-1.162-.244-2.256-.244h-1.129v4.719Z"/><path class="cls-1" d="M200.847,53.707h11.791v4.281h-7.703v4.125h7.703v4.25h-7.703v6.031h7.703v4.312h-11.791v-23Z"/><path class="cls-1" d="M215.751,53.707h4.877c3.142,0,5.478.414,7.006,1.244,1.527.828,2.787,2.176,3.775,4.041.99,1.865,1.482,4.045,1.482,6.535,0,1.771-.277,3.4-.828,4.887-.555,1.484-1.32,2.717-2.293,3.697-.975.98-2.029,1.658-3.164,2.033-1.137.375-3.105.562-5.906.562h-4.949v-23ZM219.837,57.926v14.5h1.914c1.885,0,3.252-.229,4.102-.688.848-.459,1.543-1.23,2.082-2.314.543-1.086.812-2.42.812-4.006,0-2.439-.644-4.332-1.93-5.678-1.158-1.209-3.019-1.814-5.582-1.814h-1.398Z"/><path class="cls-1" d="M235.759,53.707h4.086v23h-4.086v-23Z"/><path class="cls-1" d="M242.575,53.707h11.967v4.312h-3.939v18.687h-4.176v-18.687h-3.852v-4.312Z"/><path class="cls-1" d="M263.138,53.707h4.145v14.852c0,1.279.105,2.184.314,2.713.211.531.557.955,1.041,1.273.48.316,1.066.475,1.746.475.723,0,1.344-.178,1.867-.529.519-.355.883-.805,1.084-1.35.197-.547.299-1.59.299-3.129v-14.305h4.146v13.703c0,2.312-.123,3.916-.369,4.812-.242.896-.711,1.76-1.402,2.594-.691.834-1.488,1.451-2.391,1.851-.902.4-1.949.602-3.144.602-1.566,0-2.934-.383-4.094-1.148-1.162-.766-1.992-1.725-2.492-2.875-.5-1.15-.75-3.096-.75-5.836v-13.703Z"/><path class="cls-1" d="M281.833,53.707h3.918l9.314,15.135v-15.135h4.088v23h-3.949l-9.283-15.088v15.088h-4.088v-23Z"/><path class="cls-1" d="M303.032,53.707h4.086v23h-4.086v-23Z"/><path class="cls-1" d="M321.185,53.144c3.059,0,5.685,1.178,7.887,3.529,2.199,2.352,3.301,5.221,3.301,8.603,0,3.352-1.086,6.189-3.256,8.51-2.172,2.322-4.807,3.482-7.902,3.482-3.244,0-5.939-1.191-8.086-3.576-2.146-2.383-3.221-5.215-3.221-8.494,0-2.197.5-4.217,1.5-6.059s2.375-3.303,4.125-4.381c1.75-1.076,3.633-1.615,5.652-1.615ZM321.126,57.426c-1.996,0-3.672.738-5.031,2.215-1.361,1.477-2.039,3.353-2.039,5.629,0,2.537.855,4.543,2.566,6.019,1.328,1.154,2.855,1.73,4.578,1.73,1.945,0,3.602-.748,4.973-2.246,1.367-1.496,2.055-3.342,2.055-5.535s-.691-4.031-2.07-5.543c-1.379-1.514-3.057-2.27-5.031-2.27Z"/><path class="cls-1" d="M335.56,53.707h3.918l9.312,15.135v-15.135h4.086v23h-3.945l-9.285-15.088v15.088h-4.086v-23Z"/><path class="cls-2" d="M153.279,65.259l.047-13.493s-78.727,27.998-120.077,16.879c59.011,19.144,120.03-3.386,120.03-3.386"/><path class="cls-1" d="M.4,63.209l-.045,13.492s78.725-28,120.08-16.881C61.422,40.678.4,63.209.4,63.209"/><path class="cls-2" d="M186.177,37.924c-.113.902-.277,1.926-.5,3.07-.219,1.144-.453,2.566-.695,4.26-3.141.717-6.234,1.076-9.285,1.076-1.777,0-3.493-.164-5.138-.496-1.644-.328-3.18-.916-4.594-1.762-1.414-.846-2.66-1.961-3.738-3.344-1.074-1.387-1.879-3.062-2.418-5.027-.539-1.967-.809-3.994-.809-6.082,0-2.769.445-5.426,1.336-7.977.887-2.549,2.191-4.631,3.902-6.246,1.711-1.613,3.617-2.713,5.715-3.297,2.094-.582,4.431-.871,7.001-.871,1.426,0,2.898.082,4.41.242,1.516.164,3.305.494,5.371.992l.476,7.211c-3.258-1.115-6.105-1.672-8.535-1.672-1.484,0-2.891.252-4.215.758-1.325.508-2.462,1.305-3.415,2.395-.949,1.09-1.633,2.348-2.035,3.779-.406,1.43-.605,2.892-.605,4.389,0,2.092.32,3.902.965,5.43.648,1.531,1.762,2.715,3.336,3.551,1.579.836,3.372,1.254,5.388,1.254.988,0,2.183-.129,3.598-.383,1.414-.256,2.906-.672,4.484-1.25Z"/><path class="cls-2" d="M209.56,11.228c2.523,0,4.945.379,7.258,1.137,2.316.758,4.281,1.879,5.894,3.361,1.613,1.482,2.824,3.295,3.637,5.439.812,2.141,1.219,4.398,1.219,6.773,0,2.504-.43,4.92-1.285,7.25-.855,2.328-2.094,4.344-3.719,6.047-1.625,1.703-3.648,2.978-6.074,3.824-2.426.848-5.008,1.269-7.75,1.269-2.547,0-4.969-.379-7.262-1.137-2.293-.758-4.25-1.894-5.875-3.412-1.625-1.516-2.855-3.361-3.703-5.537-.844-2.176-1.266-4.449-1.266-6.822,0-2.418.383-4.725,1.148-6.922.77-2.197,1.973-4.154,3.605-5.867,1.637-1.713,3.727-3.043,6.273-3.988,2.543-.943,5.18-1.416,7.898-1.416ZM209.56,18.002c-1.898,0-3.598.469-5.09,1.402-1.496.934-2.606,2.328-3.336,4.176-.734,1.848-1.098,3.863-1.098,6.041,0,1.914.301,3.619.898,5.115.602,1.498,1.582,2.709,2.945,3.633,1.363.926,2.984,1.387,4.859,1.387,1.922,0,3.606-.478,5.059-1.435,1.449-.959,2.539-2.365,3.269-4.227.734-1.859,1.098-3.912,1.098-6.156,0-1.826-.285-3.488-.852-4.986-.566-1.496-1.523-2.693-2.863-3.598-1.34-.902-2.973-1.352-4.891-1.352Z"/><path class="cls-2" d="M231.638,45.533c.5-4.986.914-10.588,1.25-16.805.336-6.215.527-11.783.57-16.703,2.027.043,3.645.064,4.855.064,1.434,0,2.953-.021,4.559-.064l-.348,5.594c.68-.965,1.277-1.734,1.793-2.305.516-.572,1.176-1.133,1.973-1.68.805-.551,1.66-.99,2.57-1.32.914-.328,1.934-.592,3.066-.789,1.129-.199,2.309-.297,3.539-.297,1.953,0,3.824.246,5.613.74,1.793.494,3.234,1.279,4.336,2.357,1.094,1.076,1.82,2.25,2.172,3.525.352,1.275.527,2.625.527,4.053,0,.594-.035,1.539-.102,2.836l-.695,14.398c-.09,2-.144,4.133-.168,6.395-1.734-.043-3.219-.066-4.449-.066-1.672,0-3.351.023-5.047.066.176-1.912.395-5.246.656-10.002.266-4.756.398-7.904.398-9.441,0-1.734-.277-3.129-.824-4.184-.547-1.053-1.398-1.855-2.551-2.404-1.152-.551-2.398-.824-3.734-.824-1.32,0-2.547.254-3.687.758-1.141.506-2.129,1.242-2.965,2.207-.875.988-1.555,2.207-2.039,3.656-.504,1.539-.875,4.076-1.117,7.613-.223,3.141-.402,7.348-.535,12.621-1.691-.043-3.219-.066-4.578-.066-1.387,0-3.066.023-5.039.066Z"/><path class="cls-2" d="M272.802,44.896l-.719-7.252c2.156.881,3.98,1.494,5.477,1.838,1.492.342,2.867.512,4.121.512s2.309-.148,3.164-.445c.859-.295,1.496-.734,1.91-1.316.422-.582.629-1.191.629-1.828,0-.285-.027-.547-.082-.789-.055-.242-.152-.494-.297-.758-.141-.262-.305-.512-.492-.74-.187-.23-.445-.494-.777-.791-.328-.297-.797-.676-1.414-1.137l-1.777-1.418c-1.715-1.34-3.02-2.394-3.922-3.164-.898-.768-1.656-1.553-2.269-2.355-.617-.801-1.082-1.648-1.398-2.537-.32-.891-.48-1.797-.48-2.721,0-1.602.488-3.129,1.465-4.582.977-1.449,2.394-2.508,4.258-3.18,1.867-.668,4.059-1.004,6.578-1.004,2.875,0,6.184.344,9.934,1.035l.437,6.893c-2.543-1.035-4.988-1.553-7.332-1.553-1.269,0-2.383.125-3.336.379-.953.25-1.637.633-2.055,1.148-.418.516-.625,1.094-.625,1.728,0,.373.066.74.195,1.104.133.361.363.738.691,1.133.332.394.711.769,1.137,1.119.426.352,1.32,1.043,2.684,2.076,1.355,1.031,2.547,1.965,3.566,2.801,1.02.836,1.859,1.676,2.52,2.521.656.846,1.16,1.752,1.512,2.719.348.967.523,1.945.523,2.934,0,1.648-.504,3.176-1.516,4.582-1.008,1.406-2.535,2.506-4.578,3.295-2.047.791-4.328,1.187-6.855,1.187-1.316,0-2.922-.105-4.813-.316-1.891-.211-3.91-.584-6.062-1.117Z"/><path class="cls-2" d="M301.954,45.533c.332-3.295.562-6.051.695-8.27.219-3.516.418-7.568.582-12.158.164-4.592.375-16.168.348-14.174,1.41,2.25,7.598,2.5,9.348-.375-.301,3.822-.285,8.937-.465,12.406-.184,3.471-.32,7.445-.406,11.928-.086,4.482-.133,8.029-.133,10.643-1.992-.043-3.598-.066-4.805-.066-1.141,0-2.863.023-5.164.066Z"/><path class="cls-2" d="M318.353,45.533c.5-4.986.918-10.588,1.254-16.805.336-6.215.527-11.783.57-16.703,2.027.043,3.644.064,4.855.064,1.434,0,2.949-.021,4.559-.064l-.352,5.594c.68-.965,1.277-1.734,1.797-2.305.512-.572,1.172-1.133,1.973-1.68.805-.551,1.66-.99,2.57-1.32.91-.328,1.934-.592,3.062-.789,1.129-.199,2.312-.297,3.539-.297,1.957,0,3.828.246,5.617.74,1.789.494,3.234,1.279,4.332,2.357,1.098,1.076,1.82,2.25,2.172,3.525.351,1.275.527,2.625.527,4.053,0,.594-.031,1.539-.098,2.836l-.695,14.398c-.09,2-.145,4.133-.168,6.395-1.734-.043-3.219-.066-4.449-.066-1.672,0-3.355.023-5.047.066.176-1.912.394-5.246.656-10.002.266-4.756.395-7.904.395-9.441,0-1.734-.273-3.129-.824-4.184-.547-1.053-1.398-1.855-2.551-2.404-1.148-.551-2.395-.824-3.734-.824-1.316,0-2.543.254-3.684.758-1.144.506-2.129,1.242-2.965,2.207-.875.988-1.559,2.207-2.039,3.656-.504,1.539-.879,4.076-1.121,7.613-.223,3.141-.402,7.348-.535,12.621-1.692-.043-3.215-.066-4.578-.066-1.383,0-3.062.023-5.039.066Z"/><path class="cls-1" d="M308.145,0c1.312,0,2.437.467,3.371,1.404.93.937,1.398,2.066,1.398,3.389,0,1.299-.469,2.414-1.398,3.353-.934.936-2.059,1.402-3.371,1.402-1.289,0-2.402-.467-3.332-1.402-.934-.939-1.398-2.055-1.398-3.353,0-1.322.465-2.451,1.398-3.389.93-.937,2.043-1.404,3.332-1.404Z"/><path class="cls-2" d="M45.927,45.187l3.33-12.35,3.445-14.285,2.939-12.996.85-4.383c5.298.043,10.819.064,16.573.064l6.189-.033,9.312-.031-1.73,6.941-3.027-.16c-.83-.043-1.984-.076-3.461-.098-1.477-.021-2.988-.031-4.533-.031-3.348,0-5.514.004-6.49.016-.978.012-2.463.049-4.451.113l-2.715,11.488c2.924.066,5.879.098,8.859.098,2.059,0,5.539-.064,10.455-.193-.547,1.957-1.152,4.303-1.809,7.031-5.727-.064-9.008-.096-9.844-.096-2.535,0-5.705.064-9.511.191l-2.828,12.059,3.53.031c1.029,0,3.391-.021,7.088-.064l7.002-.125,4.705-.221c-.697,2.484-1.301,4.828-1.812,7.033-5.572-.043-10.603-.064-15.086-.064l-10.599.031-6.383.033Z"/><path class="cls-2" d="M84.635,44.244c.465-3.283.756-5.961.881-8.035,3.848,1.926,7.498,2.887,10.945,2.887,1.379,0,2.707-.207,3.982-.625,1.273-.418,2.275-1.01,2.992-1.77.717-.762,1.17-1.613,1.35-2.559.146-.726.129-1.383-.031-1.961-.26-.793-.793-1.619-1.594-2.478-1-1.18-2.816-3.123-5.445-5.83-1.248-1.309-2.109-2.246-2.57-2.803-1.055-1.225-1.832-2.326-2.332-3.303-.504-.976-.809-1.949-.92-2.914-.115-.967-.066-2,.146-3.094.389-2.02,1.322-3.914,2.793-5.688,1.471-1.769,3.428-3.156,5.867-4.154,2.439-.998,5.361-1.498,8.783-1.498,3.07,0,6.458.375,10.155,1.129-.324,2.232-.601,4.785-.836,7.66-3.1-1.297-6.064-1.945-8.896-1.945-2.105,0-3.918.477-5.443,1.437-1.527.957-2.414,2.068-2.658,3.336-.07.348-.092.705-.07,1.082.021.377.092.742.211,1.098.119.355.361.816.734,1.387.369.57.947,1.238,1.727,2,.779.766,1.455,1.383,2.018,1.855l3.269,3.609c.846.836,1.588,1.652,2.234,2.447.639.795,1.172,1.557,1.601,2.287.427.73.739,1.43.931,2.094.195.668.305,1.348.328,2.047.029.699-.037,1.432-.184,2.207-.351,1.805-1.099,3.506-2.249,5.105-1.148,1.602-2.609,2.918-4.377,3.945-1.771,1.031-3.633,1.746-5.58,2.145-1.949.394-3.963.594-6.055.594-1.375,0-2.957-.117-4.74-.351-1.785-.234-4.105-.682-6.969-1.344Z"/><path class="cls-2" d="M128.153,45.187l2.52-9.414,3.418-14.021,3.119-13.797h-2.246l-2.098.035-1.998.033-7.473.244c.777-3.109,1.33-5.475,1.668-7.094,6.174.043,12.65.066,19.417.066l11.574-.035,6.193-.031c-.812,3.072-1.373,5.437-1.699,7.094-3.855-.209-7.576-.312-11.15-.312h-2.488l-1.521,5.887-5.306,22.656-.801,3.797c-.324,1.566-.654,3.199-.98,4.893l-4.885-.064c-.539,0-2.289.019-5.264.064Z"/><path class="cls-2" d="M1.034,45.006l-.003-5.914c-.003-1.393-.032-3.342-.089-5.852L.312,9.228,0,1.129c2.053.043,3.716.064,4.991.064,1.437,0,3.104-.021,5.007-.064-.05,3.494-.058,6.055-.022,7.684l.243,12.953c.036,2.787.032,6.182-.005,10.189l1.436-4.498,4.988-14.852,3.611-11.476c2.225.043,4.112.064,5.659.064,1.68,0,3.561-.021,5.653-.064l-.36,13.533-.292,17.228,1.616-4.723c.295-.816.598-1.641.912-2.476.312-.836.953-2.498,1.922-4.982l4.719-12.344,2.269-6.236c1.974.021,3.604.031,4.897.031,1.453,0,3.08-.01,4.88-.031l-14.737,37.351-2.434,6.525c-2.44-.043-4.572-.064-6.398-.064-1.924,0-4.054.021-6.393.064l.055-4.404-.007-15.332c.013-.92.045-1.871.092-2.846.046-.975.134-2.488.259-4.549l-1.553,4.984c-.369,1.113-.744,2.24-1.13,3.375l-6.558,18.771c-2.458-.043-4.504-.064-6.133-.064-1.73,0-3.782.021-6.154.064Z"/><path class="cls-2" d="M362.499,10.885c.605,0,1.178.088,1.718.265.539.177,1.009.462,1.41.857.399.394.684.845.851,1.353.169.508.253,1.051.253,1.628,0,.626-.097,1.228-.289,1.804-.192.577-.485,1.064-.875,1.46-.389.396-.878.697-1.467.902-.588.206-1.204.308-1.845.308-.622,0-1.219-.095-1.791-.284-.572-.189-1.051-.468-1.435-.838-.383-.37-.663-.813-.84-1.329-.177-.517-.265-1.059-.265-1.628,0-.638.108-1.255.325-1.85.218-.596.532-1.093.944-1.491.412-.399.907-.691,1.485-.878.58-.187,1.185-.28,1.818-.28ZM362.48,11.388c-.563,0-1.097.083-1.6.25-.503.167-.938.438-1.305.816-.367.377-.638.821-.812,1.331s-.262,1.043-.262,1.599c0,.52.091,1.02.27,1.499.181.479.444.876.794,1.19.349.315.759.542,1.229.68.471.138.967.207,1.49.207.552,0,1.074-.078,1.566-.234.493-.156.917-.413,1.27-.771.355-.357.616-.787.782-1.288.167-.501.25-1.03.25-1.586,0-.532-.077-1.038-.231-1.517-.154-.479-.4-.887-.739-1.221-.339-.335-.742-.578-1.211-.729-.467-.15-.967-.226-1.493-.226ZM360.701,17.483c.048-.52.091-1.256.129-2.208.039-.952.057-1.779.057-2.483l.745.006.934-.014c.175,0,.335.008.481.024.146.016.264.04.352.071.09.03.182.079.277.146.096.067.177.146.243.235.067.089.117.189.149.299.032.11.049.226.049.348,0,.167-.024.322-.073.465-.049.143-.12.274-.216.394-.096.12-.203.217-.322.29-.119.074-.233.123-.344.15-.109.027-.273.06-.492.101.154.256.344.551.569.884l.866,1.291c-.227-.004-.379-.006-.46-.006l-.393.006-.279-.5c-.081-.147-.153-.274-.216-.381-.063-.108-.16-.268-.294-.479l-.797-1.269c.251.043.443.065.577.065.223,0,.425-.036.603-.107.181-.072.318-.181.413-.327.096-.147.143-.308.143-.483,0-.094-.015-.183-.043-.267-.028-.083-.078-.156-.149-.217-.07-.061-.146-.104-.227-.128-.082-.025-.169-.042-.262-.052-.094-.01-.256-.016-.487-.016-.15,0-.361.002-.633.006-.037.696-.066,1.467-.089,2.315-.022.848-.032,1.461-.032,1.84-.207-.008-.34-.012-.396-.012-.061,0-.188.004-.384.012Z"/></g></svg>